<?xml version="1.0" encoding="utf-8"?>
<!-- Generator: Adobe Illustrator 26.1.0, SVG Export Plug-In . SVG Version: 6.00 Build 0)  -->
<svg version="1.1" id="Capa_1" xmlns="http://www.w3.org/2000/svg" xmlns:xlink="http://www.w3.org/1999/xlink" x="0px" y="0px"
	 viewBox="0 0 30 30" style="enable-background:new 0 0 30 30;" xml:space="preserve">
<style type="text/css">
	.st0{fill:#FFFFFF;}
</style>
<path class="st0" d="M15,3C8.4,3,3,8.4,3,15s5.4,12,12,12s12-5.4,12-12S21.6,3,15,3z M19.2,11h-1.7c-1.1,0-1.5,0.6-1.5,1.7V14h3.2
	l-0.4,3H16v8c-0.3,0-0.7,0-1,0c-0.7,0-1.4-0.1-2-0.2V17h-3v-3h3v-1.6C13,9.3,14.5,8,17,8c1.2,0,1.9,0.1,2.2,0.1V11z"/>
</svg>
